<svg height="512pt" viewBox="-65 0 512 512" width="512pt" xmlns="http://www.w3.org/2000/svg"><path d="m382 270.308594c0 61.703125-50.199219 111.890625-111.898438 111.890625-29.851562 0-58.28125-11.988281-79.101562-32.757813-20.820312 20.769532-49.25 32.757813-79.101562 32.757813-61.699219 0-111.898438-50.1875-111.898438-111.890625 0-41.9375 23.691406-80.1875 60.210938-99.257813-3.132813-11.53125-4.710938-23.441406-4.710938-35.550781 0-35.660156 13.738281-69.328125 38.691406-94.800781 24.910156-25.429688 58.207032-39.871094 93.757813-40.6601565.980469-.0273437 2.011719-.0390625 3.050781-.0390625 1.03125 0 2.070312.0195312 3.101562.0390625 35.5.7890625 68.796876 15.2304685 93.707032 40.6601565 24.953125 25.472656 38.691406 59.140625 38.691406 94.800781 0 12.109375-1.578125 24.019531-4.710938 35.550781 36.519532 19.070313 60.210938 57.320313 60.210938 99.257813zm0 0" fill="#60d64d"/><path d="m382 270.308594c0 61.703125-50.199219 111.890625-111.898438 111.890625-29.851562 0-58.28125-11.988281-79.101562-32.757813v-349.441406c1.03125 0 2.070312.0195312 3.101562.0390625 35.5.7890625 68.796876 15.2304685 93.707032 40.6601565 24.953125 25.472656 38.691406 59.140625 38.691406 94.800781 0 12.109375-1.578125 24.019531-4.710938 35.550781 36.519532 19.070313 60.210938 57.320313 60.210938 99.257813zm0 0" fill="#00b563"/><path d="m299.550781 243.289062v22.710938c0 25.359375-20.640625 46-46 46h-15.550781v197h-94v-215.148438h-16.328125c-25.371094 0-46-20.640624-46-46v-22.710937h30v22.710937c0 8.820313 7.167969 16 16 16h16.328125v-82.636718h94v100.785156h15.550781c8.820313 0 16-7.179688 16-16v-22.710938zm0 0" fill="#b77445"/><path d="m299.550781 243.289062v22.710938c0 25.359375-20.640625 46-46 46h-15.550781v197h-47v-327.785156h47v100.785156h15.550781c8.820313 0 16-7.179688 16-16v-22.710938zm0 0" fill="#a04010"/><path d="m103 482h176v30h-176zm0 0" fill="#9ce78d"/><path d="m191 482h88v30h-88zm0 0" fill="#36cb8e"/></svg>