<svg height="512pt" viewBox="-89 0 512 512" width="512pt" xmlns="http://www.w3.org/2000/svg"><path d="m333.941406 218c0 57.441406-16.871094 111.609375-47.5 152.53125-31.613281 42.21875-74.042968 65.46875-119.472656 65.46875s-87.859375-23.25-119.46875-65.46875c-30.628906-40.921875-47.5-95.089844-47.5-152.53125s16.871094-111.609375 47.5-152.53125c31.609375-42.21875 74.039062-65.46875 119.46875-65.46875s87.859375 23.25 119.472656 65.46875c30.628906 40.921875 47.5 95.089844 47.5 152.53125zm0 0" fill="#ff7a53"/><path d="m333.941406 218c0 57.441406-16.871094 111.609375-47.5 152.53125-31.613281 42.21875-74.042968 65.46875-119.472656 65.46875v-436c45.429688 0 87.859375 23.25 119.472656 65.46875 30.628906 40.921875 47.5 95.089844 47.5 152.53125zm0 0" fill="#ff4f19"/><path d="m275.519531 211.796875v22.707031c0 25.359375-20.640625 46-46 46h-15.550781v228.496094h-94v-246.644531h-16.328125c-25.371094 0-46-20.640625-46-46v-22.710938h30v22.710938c0 8.820312 7.167969 16 16 16h16.328125v-79.640625h94v97.789062h15.550781c8.820313 0 16-7.179687 16-16v-22.707031zm0 0" fill="#f8bd2d"/><path d="m275.519531 211.796875v22.707031c0 25.359375-20.640625 46-46 46h-15.550781v228.496094h-47v-356.285156h47v97.789062h15.550781c8.820313 0 16-7.179687 16-16v-22.707031zm0 0" fill="#fd9d28"/><path d="m78.96875 482h176v30h-176zm0 0" fill="#9ce78d"/><path d="m166.96875 482h88v30h-88zm0 0" fill="#36cb8e"/></svg>