<svg height="511pt" viewBox="-63 1 511 511.99999" width="511pt" xmlns="http://www.w3.org/2000/svg"><path d="m375.300781 343.542969c-13.605469 22.292969-37.316406 35.597656-63.4375 35.597656h-236.96875c-26.121093 0-49.832031-13.304687-63.4375-35.597656-13.605469-22.289063-14.597656-49.460938-2.660156-72.679688l118.484375-230.523437c12.792969-24.882813 38.117188-40.339844 66.097656-40.339844 27.984375 0 53.304688 15.457031 66.101563 40.339844l118.480469 230.523437c11.9375 23.21875 10.945312 50.390625-2.660157 72.679688zm0 0" fill="#00ceb4"/><path d="m375.300781 343.542969c-13.605469 22.292969-37.316406 35.597656-63.4375 35.597656h-118.484375v-379.140625c27.984375 0 53.304688 15.457031 66.101563 40.339844l118.480469 230.523437c11.9375 23.21875 10.945312 50.390625-2.660157 72.679688zm0 0" fill="#008878"/><path d="m301.976562 243.167969v22.722656c0 25.371094-20.648437 46.019531-46.019531 46.019531h-15.554687v197.089844h-94.042969v-215.246094h-16.339844c-25.378906 0-46.019531-20.652344-46.019531-46.023437v-22.71875h30.011719v22.71875c0 8.824219 7.175781 16.007812 16.007812 16.007812h16.339844v-82.671875h94.042969v100.832032h15.554687c8.824219 0 16.007813-7.183594 16.007813-16.007813v-22.722656zm0 0" fill="#b77445"/><path d="m301.976562 243.167969v22.722656c0 25.371094-20.648437 46.019531-46.019531 46.019531h-15.554687v197.089844h-47.023438v-327.933594h47.023438v100.832032h15.554687c8.824219 0 16.007813-7.183594 16.007813-16.007813v-22.722656zm0 0" fill="#a04010"/><path d="m105.339844 481.988281h176.078125v30.011719h-176.078125zm0 0" fill="#9ce78d"/><path d="m193.378906 481.988281h88.039063v30.011719h-88.039063zm0 0" fill="#36cb8e"/></svg>